{
	"asset":{
		"generator":"Khronos glTF Blender I/O v5.0.21",
		"version":"2.0"
	},
	"scene":0,
	"scenes":[
		{
			"name":"Scene",
			"nodes":[
				0
			]
		}
	],
	"nodes":[
		{
			"mesh":0,
			"name":"airscribe",
			"rotation":[
				0.7071068286895752,
				0,
				0,
				0.7071068286895752
			],
			"scale":[
				0.009999999776482582,
				0.009999999776482582,
				0.009999999776482582
			]
		}
	],
	"materials":[
		{
			"doubleSided":true,
			"name":"airscribe_end",
			"pbrMetallicRoughness":{
				"baseColorFactor":[
					1,
					0.2313999980688095,
					0,
					1
				],
				"metallicFactor":0,
				"roughnessFactor":0.7487671971321106
			}
		},
		{
			"doubleSided":true,
			"name":"airscribe_body",
			"pbrMetallicRoughness":{
				"baseColorFactor":[
					0.01979999989271164,
					0.01979999989271164,
					0.01979999989271164,
					1
				],
				"metallicFactor":0,
				"roughnessFactor":0.7487671971321106
			}
		},
		{
			"doubleSided":true,
			"name":"airscribe_grip",
			"pbrMetallicRoughness":{
				"baseColorFactor":[
					0.6072999835014343,
					0.6072999835014343,
					0.6072999835014343,
					1
				],
				"metallicFactor":0,
				"roughnessFactor":0.5527864098548889
			}
		},
		{
			"doubleSided":true,
			"name":"airscribe_tip",
			"pbrMetallicRoughness":{
				"baseColorFactor":[
					0.06451612710952759,
					0.06451612710952759,
					0.06451612710952759,
					1
				],
				"metallicFactor":0,
				"roughnessFactor":0.5
			}
		},
		{
			"doubleSided":true,
			"name":"airscribe_brass",
			"pbrMetallicRoughness":{
				"baseColorFactor":[
					1,
					0.7125999927520752,
					0.2206999957561493,
					1
				],
				"metallicFactor":0,
				"roughnessFactor":0.5527864098548889
			}
		}
	],
	"meshes":[
		{
			"name":"Mesh.010",
			"primitives":[
				{
					"attributes":{
						"POSITION":0,
						"NORMAL":1,
						"TEXCOORD_0":2
					},
					"indices":3,
					"material":0
				},
				{
					"attributes":{
						"POSITION":4,
						"NORMAL":5,
						"TEXCOORD_0":6
					},
					"indices":7,
					"material":1
				},
				{
					"attributes":{
						"POSITION":8,
						"NORMAL":9,
						"TEXCOORD_0":10
					},
					"indices":11,
					"material":2
				},
				{
					"attributes":{
						"POSITION":12,
						"NORMAL":13,
						"TEXCOORD_0":14
					},
					"indices":15,
					"material":3
				},
				{
					"attributes":{
						"POSITION":16,
						"NORMAL":17,
						"TEXCOORD_0":18
					},
					"indices":19,
					"material":4
				}
			]
		}
	],
	"accessors":[
		{
			"bufferView":0,
			"componentType":5126,
			"count":3405,
			"max":[
				0.8025161623954773,
				0.8025158643722534,
				-13.876992225646973
			],
			"min":[
				-0.8025161027908325,
				-0.8025168180465698,
				-14.99498462677002
			],
			"type":"VEC3"
		},
		{
			"bufferView":1,
			"componentType":5126,
			"count":3405,
			"type":"VEC3"
		},
		{
			"bufferView":2,
			"componentType":5126,
			"count":3405,
			"type":"VEC2"
		},
		{
			"bufferView":3,
			"componentType":5123,
			"count":15480,
			"type":"SCALAR"
		},
		{
			"bufferView":4,
			"componentType":5126,
			"count":3433,
			"max":[
				0.8332825303077698,
				0.8332821130752563,
				-2.6927337646484375
			],
			"min":[
				-0.8332822918891907,
				-0.8332831263542175,
				-12.22406005859375
			],
			"type":"VEC3"
		},
		{
			"bufferView":5,
			"componentType":5126,
			"count":3433,
			"type":"VEC3"
		},
		{
			"bufferView":6,
			"componentType":5126,
			"count":3433,
			"type":"VEC2"
		},
		{
			"bufferView":7,
			"componentType":5123,
			"count":12960,
			"type":"SCALAR"
		},
		{
			"bufferView":8,
			"componentType":5126,
			"count":3790,
			"max":[
				0.5826067924499512,
				0.5826062560081482,
				-2.315992832183838
			],
			"min":[
				-0.5826066136360168,
				-0.5826072692871094,
				-5.8005781173706055
			],
			"type":"VEC3"
		},
		{
			"bufferView":9,
			"componentType":5126,
			"count":3790,
			"type":"VEC3"
		},
		{
			"bufferView":10,
			"componentType":5126,
			"count":3790,
			"type":"VEC2"
		},
		{
			"bufferView":11,
			"componentType":5123,
			"count":17280,
			"type":"SCALAR"
		},
		{
			"bufferView":12,
			"componentType":5126,
			"count":1186,
			"max":[
				0.06141696497797966,
				0.061416469514369965,
				0.01281668245792389
			],
			"min":[
				-0.061417240649461746,
				-0.06141740456223488,
				-2.3715732097625732
			],
			"type":"VEC3"
		},
		{
			"bufferView":13,
			"componentType":5126,
			"count":1186,
			"type":"VEC3"
		},
		{
			"bufferView":14,
			"componentType":5126,
			"count":1186,
			"type":"VEC2"
		},
		{
			"bufferView":15,
			"componentType":5123,
			"count":6120,
			"type":"SCALAR"
		},
		{
			"bufferView":16,
			"componentType":5126,
			"count":4156,
			"max":[
				1.0522522926330566,
				1.0461716651916504,
				-12.189353942871094
			],
			"min":[
				-1.0522520542144775,
				-1.0457414388656616,
				-13.882869720458984
			],
			"type":"VEC3"
		},
		{
			"bufferView":17,
			"componentType":5126,
			"count":4156,
			"type":"VEC3"
		},
		{
			"bufferView":18,
			"componentType":5126,
			"count":4156,
			"type":"VEC2"
		},
		{
			"bufferView":19,
			"componentType":5123,
			"count":20160,
			"type":"SCALAR"
		}
	],
	"bufferViews":[
		{
			"buffer":0,
			"byteLength":40860,
			"byteOffset":0,
			"target":34962
		},
		{
			"buffer":0,
			"byteLength":40860,
			"byteOffset":40860,
			"target":34962
		},
		{
			"buffer":0,
			"byteLength":27240,
			"byteOffset":81720,
			"target":34962
		},
		{
			"buffer":0,
			"byteLength":30960,
			"byteOffset":108960,
			"target":34963
		},
		{
			"buffer":0,
			"byteLength":41196,
			"byteOffset":139920,
			"target":34962
		},
		{
			"buffer":0,
			"byteLength":41196,
			"byteOffset":181116,
			"target":34962
		},
		{
			"buffer":0,
			"byteLength":27464,
			"byteOffset":222312,
			"target":34962
		},
		{
			"buffer":0,
			"byteLength":25920,
			"byteOffset":249776,
			"target":34963
		},
		{
			"buffer":0,
			"byteLength":45480,
			"byteOffset":275696,
			"target":34962
		},
		{
			"buffer":0,
			"byteLength":45480,
			"byteOffset":321176,
			"target":34962
		},
		{
			"buffer":0,
			"byteLength":30320,
			"byteOffset":366656,
			"target":34962
		},
		{
			"buffer":0,
			"byteLength":34560,
			"byteOffset":396976,
			"target":34963
		},
		{
			"buffer":0,
			"byteLength":14232,
			"byteOffset":431536,
			"target":34962
		},
		{
			"buffer":0,
			"byteLength":14232,
			"byteOffset":445768,
			"target":34962
		},
		{
			"buffer":0,
			"byteLength":9488,
			"byteOffset":460000,
			"target":34962
		},
		{
			"buffer":0,
			"byteLength":12240,
			"byteOffset":469488,
			"target":34963
		},
		{
			"buffer":0,
			"byteLength":49872,
			"byteOffset":481728,
			"target":34962
		},
		{
			"buffer":0,
			"byteLength":49872,
			"byteOffset":531600,
			"target":34962
		},
		{
			"buffer":0,
			"byteLength":33248,
			"byteOffset":581472,
			"target":34962
		},
		{
			"buffer":0,
			"byteLength":40320,
			"byteOffset":614720,
			"target":34963
		}
	],
	"buffers":[
		{
			"byteLength":655040,
			"uri":"airscribe.bin"
		}
	]
}
