{
	"asset":{
		"generator":"Khronos glTF Blender I/O v5.0.21",
		"version":"2.0"
	},
	"extensionsUsed":[
		"KHR_materials_specular"
	],
	"scene":0,
	"scenes":[
		{
			"name":"Scene",
			"nodes":[
				0
			]
		}
	],
	"nodes":[
		{
			"mesh":0,
			"name":"b72",
			"rotation":[
				0.7071068286895752,
				0,
				0,
				0.7071068286895752
			],
			"scale":[
				0.009999999776482582,
				0.009999999776482582,
				0.009999999776482582
			],
			"translation":[
				0.0005305915838107467,
				0,
				0
			]
		}
	],
	"materials":[
		{
			"doubleSided":true,
			"name":"b72_body",
			"pbrMetallicRoughness":{
				"baseColorFactor":[
					0.8341000080108643,
					0.8341000080108643,
					0.8341000080108643,
					1
				],
				"metallicFactor":0,
				"roughnessFactor":0.5
			}
		},
		{
			"doubleSided":true,
			"name":"b72_label",
			"pbrMetallicRoughness":{
				"metallicFactor":0,
				"roughnessFactor":0.5
			}
		},
		{
			"doubleSided":true,
			"extensions":{
				"KHR_materials_specular":{
					"specularColorFactor":[
						0.5,
						0.5,
						0.5
					]
				}
			},
			"name":"b72_tip",
			"pbrMetallicRoughness":{
				"baseColorFactor":[
					0.7617999911308289,
					0.7617999911308289,
					0.7617999911308289,
					1
				],
				"metallicFactor":0,
				"roughnessFactor":0.5527864098548889
			}
		},
		{
			"doubleSided":true,
			"extensions":{
				"KHR_materials_specular":{
					"specularColorFactor":[
						0.5,
						0.5,
						0.5
					]
				}
			},
			"name":"b72_cap",
			"pbrMetallicRoughness":{
				"baseColorFactor":[
					0.06199999898672104,
					0.06199999898672104,
					0.06199999898672104,
					1
				],
				"metallicFactor":0,
				"roughnessFactor":0.7487671971321106
			}
		}
	],
	"meshes":[
		{
			"name":"Mesh.011",
			"primitives":[
				{
					"attributes":{
						"POSITION":0,
						"NORMAL":1,
						"TEXCOORD_0":2
					},
					"indices":3,
					"material":0
				},
				{
					"attributes":{
						"POSITION":4,
						"NORMAL":5,
						"TEXCOORD_0":6
					},
					"indices":7,
					"material":1
				},
				{
					"attributes":{
						"POSITION":8,
						"NORMAL":9,
						"TEXCOORD_0":10
					},
					"indices":11,
					"material":2
				},
				{
					"attributes":{
						"POSITION":12,
						"NORMAL":13,
						"TEXCOORD_0":14
					},
					"indices":15,
					"material":3
				}
			]
		}
	],
	"accessors":[
		{
			"bufferView":0,
			"componentType":5126,
			"count":393,
			"max":[
				1.983060598373413,
				2.013331174850464,
				-3.9256391525268555
			],
			"min":[
				-1.9830613136291504,
				-1.9830609560012817,
				-14.295440673828125
			],
			"type":"VEC3"
		},
		{
			"bufferView":1,
			"componentType":5126,
			"count":393,
			"type":"VEC3"
		},
		{
			"bufferView":2,
			"componentType":5126,
			"count":393,
			"type":"VEC2"
		},
		{
			"bufferView":3,
			"componentType":5123,
			"count":1638,
			"type":"SCALAR"
		},
		{
			"bufferView":4,
			"componentType":5126,
			"count":72,
			"max":[
				1.983060598373413,
				2.0524628162384033,
				-4.295440673828125
			],
			"min":[
				-1.8131755590438843,
				-0.3657575845718384,
				-10.96210765838623
			],
			"type":"VEC3"
		},
		{
			"bufferView":5,
			"componentType":5126,
			"count":72,
			"type":"VEC3"
		},
		{
			"bufferView":6,
			"componentType":5126,
			"count":72,
			"type":"VEC2"
		},
		{
			"bufferView":7,
			"componentType":5123,
			"count":198,
			"type":"SCALAR"
		},
		{
			"bufferView":8,
			"componentType":5126,
			"count":413,
			"max":[
				0.09590934962034225,
				0.09591425210237503,
				0.0028905868530273438
			],
			"min":[
				-0.09593498706817627,
				-0.09590952098369598,
				-1.666701316833496
			],
			"type":"VEC3"
		},
		{
			"bufferView":9,
			"componentType":5126,
			"count":413,
			"type":"VEC3"
		},
		{
			"bufferView":10,
			"componentType":5126,
			"count":413,
			"type":"VEC2"
		},
		{
			"bufferView":11,
			"componentType":5123,
			"count":1620,
			"type":"SCALAR"
		},
		{
			"bufferView":12,
			"componentType":5126,
			"count":528,
			"max":[
				1.1161603927612305,
				1.11616051197052,
				-1.666698932647705
			],
			"min":[
				-1.1161607503890991,
				-1.1161606311798096,
				-3.9256391525268555
			],
			"type":"VEC3"
		},
		{
			"bufferView":13,
			"componentType":5126,
			"count":528,
			"type":"VEC3"
		},
		{
			"bufferView":14,
			"componentType":5126,
			"count":528,
			"type":"VEC2"
		},
		{
			"bufferView":15,
			"componentType":5123,
			"count":2160,
			"type":"SCALAR"
		}
	],
	"bufferViews":[
		{
			"buffer":0,
			"byteLength":4716,
			"byteOffset":0,
			"target":34962
		},
		{
			"buffer":0,
			"byteLength":4716,
			"byteOffset":4716,
			"target":34962
		},
		{
			"buffer":0,
			"byteLength":3144,
			"byteOffset":9432,
			"target":34962
		},
		{
			"buffer":0,
			"byteLength":3276,
			"byteOffset":12576,
			"target":34963
		},
		{
			"buffer":0,
			"byteLength":864,
			"byteOffset":15852,
			"target":34962
		},
		{
			"buffer":0,
			"byteLength":864,
			"byteOffset":16716,
			"target":34962
		},
		{
			"buffer":0,
			"byteLength":576,
			"byteOffset":17580,
			"target":34962
		},
		{
			"buffer":0,
			"byteLength":396,
			"byteOffset":18156,
			"target":34963
		},
		{
			"buffer":0,
			"byteLength":4956,
			"byteOffset":18552,
			"target":34962
		},
		{
			"buffer":0,
			"byteLength":4956,
			"byteOffset":23508,
			"target":34962
		},
		{
			"buffer":0,
			"byteLength":3304,
			"byteOffset":28464,
			"target":34962
		},
		{
			"buffer":0,
			"byteLength":3240,
			"byteOffset":31768,
			"target":34963
		},
		{
			"buffer":0,
			"byteLength":6336,
			"byteOffset":35008,
			"target":34962
		},
		{
			"buffer":0,
			"byteLength":6336,
			"byteOffset":41344,
			"target":34962
		},
		{
			"buffer":0,
			"byteLength":4224,
			"byteOffset":47680,
			"target":34962
		},
		{
			"buffer":0,
			"byteLength":4320,
			"byteOffset":51904,
			"target":34963
		}
	],
	"buffers":[
		{
			"byteLength":56224,
			"uri":"b72.bin"
		}
	]
}
