{
	"asset":{
		"generator":"Khronos glTF Blender I/O v5.0.21",
		"version":"2.0"
	},
	"extensionsUsed":[
		"KHR_materials_specular"
	],
	"scene":0,
	"scenes":[
		{
			"name":"Scene",
			"nodes":[
				2
			]
		}
	],
	"nodes":[
		{
			"mesh":0,
			"name":"brush_body",
			"translation":[
				0,
				0,
				-8.112887382507324
			]
		},
		{
			"mesh":1,
			"name":"brush_bristle",
			"translation":[
				0,
				0,
				-1.6487993001937866
			]
		},
		{
			"children":[
				0,
				1
			],
			"name":"brush",
			"rotation":[
				0.7071068286895752,
				0,
				0,
				0.7071068286895752
			],
			"scale":[
				0.009999999776482582,
				0.009999999776482582,
				0.009999999776482582
			],
			"translation":[
				0,
				-0.0032208419870585203,
				0
			]
		}
	],
	"materials":[
		{
			"doubleSided":true,
			"name":"brush_handle",
			"pbrMetallicRoughness":{
				"baseColorFactor":[
					0.10322580486536026,
					0.06917966902256012,
					0.02012903057038784,
					1
				],
				"metallicFactor":0,
				"roughnessFactor":0.5
			}
		},
		{
			"doubleSided":true,
			"extensions":{
				"KHR_materials_specular":{
					"specularColorFactor":[
						0.5,
						0.5,
						0.5
					]
				}
			},
			"name":"brush_metal",
			"pbrMetallicRoughness":{
				"baseColorFactor":[
					0.2849999964237213,
					0.2849999964237213,
					0.2849999964237213,
					1
				],
				"metallicFactor":0,
				"roughnessFactor":0.5527864098548889
			}
		},
		{
			"doubleSided":true,
			"name":"brush_bristles",
			"pbrMetallicRoughness":{
				"baseColorFactor":[
					0.05806451663374901,
					0.05806451663374901,
					0.05806451663374901,
					1
				],
				"metallicFactor":0,
				"roughnessFactor":0.5
			}
		}
	],
	"meshes":[
		{
			"name":"Mesh.013",
			"primitives":[
				{
					"attributes":{
						"POSITION":0,
						"NORMAL":1,
						"TEXCOORD_0":2
					},
					"indices":3,
					"material":0
				},
				{
					"attributes":{
						"POSITION":4,
						"NORMAL":5,
						"TEXCOORD_0":6
					},
					"indices":7,
					"material":1
				}
			]
		},
		{
			"name":"Mesh.012",
			"primitives":[
				{
					"attributes":{
						"POSITION":8,
						"NORMAL":9,
						"TEXCOORD_0":10
					},
					"indices":11,
					"material":2
				}
			]
		}
	],
	"accessors":[
		{
			"bufferView":0,
			"componentType":5126,
			"count":589,
			"max":[
				1.620394229888916,
				0.5009617805480957,
				5.026494026184082
			],
			"min":[
				-1.620394229888916,
				-0.5009617805480957,
				-0.04778289794921875
			],
			"type":"VEC3"
		},
		{
			"bufferView":1,
			"componentType":5126,
			"count":589,
			"type":"VEC3"
		},
		{
			"bufferView":2,
			"componentType":5126,
			"count":589,
			"type":"VEC2"
		},
		{
			"bufferView":3,
			"componentType":5123,
			"count":2592,
			"type":"SCALAR"
		},
		{
			"bufferView":4,
			"componentType":5126,
			"count":879,
			"max":[
				1.7322661876678467,
				0.5416666865348816,
				6.528521537780762
			],
			"min":[
				-1.7322661876678467,
				-0.5416666865348816,
				4.5240912437438965
			],
			"type":"VEC3"
		},
		{
			"bufferView":5,
			"componentType":5126,
			"count":879,
			"type":"VEC3"
		},
		{
			"bufferView":6,
			"componentType":5126,
			"count":879,
			"type":"VEC2"
		},
		{
			"bufferView":7,
			"componentType":5123,
			"count":4176,
			"type":"SCALAR"
		},
		{
			"bufferView":8,
			"componentType":5126,
			"count":1491,
			"max":[
				1.49471116065979,
				0.37503230571746826,
				1.650567650794983
			],
			"min":[
				-1.49471116065979,
				-0.37503230571746826,
				-0.3494323492050171
			],
			"type":"VEC3"
		},
		{
			"bufferView":9,
			"componentType":5126,
			"count":1491,
			"type":"VEC3"
		},
		{
			"bufferView":10,
			"componentType":5126,
			"count":1491,
			"type":"VEC2"
		},
		{
			"bufferView":11,
			"componentType":5123,
			"count":3840,
			"type":"SCALAR"
		}
	],
	"bufferViews":[
		{
			"buffer":0,
			"byteLength":7068,
			"byteOffset":0,
			"target":34962
		},
		{
			"buffer":0,
			"byteLength":7068,
			"byteOffset":7068,
			"target":34962
		},
		{
			"buffer":0,
			"byteLength":4712,
			"byteOffset":14136,
			"target":34962
		},
		{
			"buffer":0,
			"byteLength":5184,
			"byteOffset":18848,
			"target":34963
		},
		{
			"buffer":0,
			"byteLength":10548,
			"byteOffset":24032,
			"target":34962
		},
		{
			"buffer":0,
			"byteLength":10548,
			"byteOffset":34580,
			"target":34962
		},
		{
			"buffer":0,
			"byteLength":7032,
			"byteOffset":45128,
			"target":34962
		},
		{
			"buffer":0,
			"byteLength":8352,
			"byteOffset":52160,
			"target":34963
		},
		{
			"buffer":0,
			"byteLength":17892,
			"byteOffset":60512,
			"target":34962
		},
		{
			"buffer":0,
			"byteLength":17892,
			"byteOffset":78404,
			"target":34962
		},
		{
			"buffer":0,
			"byteLength":11928,
			"byteOffset":96296,
			"target":34962
		},
		{
			"buffer":0,
			"byteLength":7680,
			"byteOffset":108224,
			"target":34963
		}
	],
	"buffers":[
		{
			"byteLength":115904,
			"uri":"brush.bin"
		}
	]
}
