{
	"asset":{
		"generator":"Khronos glTF Blender I/O v5.0.21",
		"version":"2.0"
	},
	"scene":0,
	"scenes":[
		{
			"name":"Scene",
			"nodes":[
				0
			]
		}
	],
	"nodes":[
		{
			"mesh":0,
			"name":"handtool",
			"rotation":[
				0.7071068286895752,
				0,
				0,
				0.7071068286895752
			],
			"scale":[
				0.009999999776482582,
				0.009999999776482582,
				0.009999999776482582
			],
			"translation":[
				0,
				0,
				-3.194644523318857e-05
			]
		}
	],
	"materials":[
		{
			"doubleSided":true,
			"name":"handtool_body",
			"pbrMetallicRoughness":{
				"baseColorFactor":[
					0.6019999980926514,
					0.6019999980926514,
					0.6019999980926514,
					1
				],
				"metallicFactor":0,
				"roughnessFactor":0.5527864098548889
			}
		},
		{
			"doubleSided":true,
			"name":"handtool_tip",
			"pbrMetallicRoughness":{
				"baseColorFactor":[
					0.04500000178813934,
					0.04500000178813934,
					0.04500000178813934,
					1
				],
				"metallicFactor":0,
				"roughnessFactor":0.5
			}
		}
	],
	"meshes":[
		{
			"name":"Mesh.014",
			"primitives":[
				{
					"attributes":{
						"POSITION":0,
						"NORMAL":1,
						"TEXCOORD_0":2
					},
					"indices":3,
					"material":0
				},
				{
					"attributes":{
						"POSITION":4,
						"NORMAL":5,
						"TEXCOORD_0":6
					},
					"indices":7,
					"material":1
				}
			]
		}
	],
	"accessors":[
		{
			"bufferView":0,
			"componentType":5126,
			"count":8700,
			"max":[
				0.6030753254890442,
				0.6157283782958984,
				-1.9424238204956055
			],
			"min":[
				-0.6092561483383179,
				-0.6096097826957703,
				-14.661368370056152
			],
			"type":"VEC3"
		},
		{
			"bufferView":1,
			"componentType":5126,
			"count":8700,
			"type":"VEC3"
		},
		{
			"bufferView":2,
			"componentType":5126,
			"count":8700,
			"type":"VEC2"
		},
		{
			"bufferView":3,
			"componentType":5123,
			"count":40440,
			"type":"SCALAR"
		},
		{
			"bufferView":4,
			"componentType":5126,
			"count":272,
			"max":[
				0.1637667566537857,
				0.16176246106624603,
				0
			],
			"min":[
				-0.16358868777751923,
				-0.1655934453010559,
				-1.99420166015625
			],
			"type":"VEC3"
		},
		{
			"bufferView":5,
			"componentType":5126,
			"count":272,
			"type":"VEC3"
		},
		{
			"bufferView":6,
			"componentType":5126,
			"count":272,
			"type":"VEC2"
		},
		{
			"bufferView":7,
			"componentType":5123,
			"count":1320,
			"type":"SCALAR"
		}
	],
	"bufferViews":[
		{
			"buffer":0,
			"byteLength":104400,
			"byteOffset":0,
			"target":34962
		},
		{
			"buffer":0,
			"byteLength":104400,
			"byteOffset":104400,
			"target":34962
		},
		{
			"buffer":0,
			"byteLength":69600,
			"byteOffset":208800,
			"target":34962
		},
		{
			"buffer":0,
			"byteLength":80880,
			"byteOffset":278400,
			"target":34963
		},
		{
			"buffer":0,
			"byteLength":3264,
			"byteOffset":359280,
			"target":34962
		},
		{
			"buffer":0,
			"byteLength":3264,
			"byteOffset":362544,
			"target":34962
		},
		{
			"buffer":0,
			"byteLength":2176,
			"byteOffset":365808,
			"target":34962
		},
		{
			"buffer":0,
			"byteLength":2640,
			"byteOffset":367984,
			"target":34963
		}
	],
	"buffers":[
		{
			"byteLength":370624,
			"uri":"handtool.bin"
		}
	]
}
